<svg xmlns="http://www.w3.org/2000/svg" viewBox="0 0 940 470" width="940" height="470" font-family="sans-serif" font-size="16">
<rect width="940" height="470" fill="#ffffff"/>
<text x="235" y="30" text-anchor="middle" font-size="18" fill="#000" font-weight="bold">折叠位线（8F²）</text>
<text x="705" y="30" text-anchor="middle" font-size="18" fill="#000" font-weight="bold">开放位线（6F²）</text>
<line x1="470" y1="15" x2="470" y2="455" stroke="#999" stroke-width="1.5" stroke-dasharray="6 5"/>
<line x1="90" y1="70" x2="90" y2="330" stroke="#555" stroke-width="2"/>
<text x="90" y="62" text-anchor="middle" font-size="14" fill="#555">WL0</text>
<line x1="160" y1="70" x2="160" y2="330" stroke="#555" stroke-width="2"/>
<text x="160" y="62" text-anchor="middle" font-size="14" fill="#555">WL1</text>
<line x1="230" y1="70" x2="230" y2="330" stroke="#555" stroke-width="2"/>
<text x="230" y="62" text-anchor="middle" font-size="14" fill="#555">WL2</text>
<line x1="300" y1="70" x2="300" y2="330" stroke="#555" stroke-width="2"/>
<text x="300" y="62" text-anchor="middle" font-size="14" fill="#555">WL3</text>
<line x1="50" y1="110" x2="370" y2="110" stroke="#1f5fa8" stroke-width="2.5"/>
<text x="44" y="115" text-anchor="end" font-size="14" fill="#1f5fa8">BL0</text>
<circle cx="90" cy="110" r="9" fill="#c0392b" stroke="#000" stroke-width="2"/>
<circle cx="160" cy="110" r="9" fill="#fff" stroke="#000" stroke-width="2"/>
<circle cx="230" cy="110" r="9" fill="#c0392b" stroke="#000" stroke-width="2"/>
<circle cx="300" cy="110" r="9" fill="#fff" stroke="#000" stroke-width="2"/>
<line x1="50" y1="160" x2="370" y2="160" stroke="#1f5fa8" stroke-width="2.5" stroke-dasharray="10 6"/>
<text x="44" y="165" text-anchor="end" font-size="14" fill="#1f5fa8">BLB0</text>
<circle cx="90" cy="160" r="9" fill="#fff" stroke="#000" stroke-width="2"/>
<circle cx="160" cy="160" r="9" fill="#c0392b" stroke="#000" stroke-width="2"/>
<circle cx="230" cy="160" r="9" fill="#fff" stroke="#000" stroke-width="2"/>
<circle cx="300" cy="160" r="9" fill="#c0392b" stroke="#000" stroke-width="2"/>
<line x1="50" y1="240" x2="370" y2="240" stroke="#1f5fa8" stroke-width="2.5"/>
<text x="44" y="245" text-anchor="end" font-size="14" fill="#1f5fa8">BL1</text>
<circle cx="90" cy="240" r="9" fill="#c0392b" stroke="#000" stroke-width="2"/>
<circle cx="160" cy="240" r="9" fill="#fff" stroke="#000" stroke-width="2"/>
<circle cx="230" cy="240" r="9" fill="#c0392b" stroke="#000" stroke-width="2"/>
<circle cx="300" cy="240" r="9" fill="#fff" stroke="#000" stroke-width="2"/>
<line x1="50" y1="290" x2="370" y2="290" stroke="#1f5fa8" stroke-width="2.5" stroke-dasharray="10 6"/>
<text x="44" y="295" text-anchor="end" font-size="14" fill="#1f5fa8">BLB1</text>
<circle cx="90" cy="290" r="9" fill="#fff" stroke="#000" stroke-width="2"/>
<circle cx="160" cy="290" r="9" fill="#c0392b" stroke="#000" stroke-width="2"/>
<circle cx="230" cy="290" r="9" fill="#fff" stroke="#000" stroke-width="2"/>
<circle cx="300" cy="290" r="9" fill="#c0392b" stroke="#000" stroke-width="2"/>
<line x1="370" y1="110" x2="390" y2="110" stroke="#000" stroke-width="2.5"/>
<line x1="370" y1="160" x2="390" y2="160" stroke="#000" stroke-width="2.5"/>
<rect x="390" y="98" width="50" height="74" fill="#eee" stroke="#000" stroke-width="2"/>
<text x="415" y="140.0" text-anchor="middle" font-size="14" fill="#000">SA</text>
<line x1="370" y1="240" x2="390" y2="240" stroke="#000" stroke-width="2.5"/>
<line x1="370" y1="290" x2="390" y2="290" stroke="#000" stroke-width="2.5"/>
<rect x="390" y="228" width="50" height="74" fill="#eee" stroke="#000" stroke-width="2"/>
<text x="415" y="270.0" text-anchor="middle" font-size="14" fill="#000">SA</text>
<text x="235" y="365" text-anchor="middle" font-size="14" fill="#000">一对位线并排穿过同一块阵列；</text>
<text x="235" y="385" text-anchor="middle" font-size="14" fill="#000">每根字线与一对位线有两个交叉点，只能用一个</text>
<circle cx="120" cy="420" r="9" fill="#c0392b" stroke="#000" stroke-width="2"/>
<text x="136" y="425" text-anchor="start" font-size="14" fill="#000">放了单元的交叉点</text>
<circle cx="290" cy="420" r="9" fill="#fff" stroke="#000" stroke-width="2"/>
<text x="306" y="425" text-anchor="start" font-size="14" fill="#000">必须空着的交叉点</text>
<line x1="520" y1="70" x2="520" y2="330" stroke="#555" stroke-width="2"/>
<text x="520" y="62" text-anchor="middle" font-size="14" fill="#555">WL0</text>
<line x1="570" y1="70" x2="570" y2="330" stroke="#555" stroke-width="2"/>
<text x="570" y="62" text-anchor="middle" font-size="14" fill="#555">WL1</text>
<line x1="620" y1="70" x2="620" y2="330" stroke="#555" stroke-width="2"/>
<text x="620" y="62" text-anchor="middle" font-size="14" fill="#555">WL2</text>
<line x1="790" y1="70" x2="790" y2="330" stroke="#555" stroke-width="2"/>
<text x="790" y="62" text-anchor="middle" font-size="14" fill="#555">WL0'</text>
<line x1="840" y1="70" x2="840" y2="330" stroke="#555" stroke-width="2"/>
<text x="840" y="62" text-anchor="middle" font-size="14" fill="#555">WL1'</text>
<line x1="890" y1="70" x2="890" y2="330" stroke="#555" stroke-width="2"/>
<text x="890" y="62" text-anchor="middle" font-size="14" fill="#555">WL2'</text>
<line x1="495" y1="110" x2="680" y2="110" stroke="#1f5fa8" stroke-width="2.5"/>
<line x1="730" y1="110" x2="915" y2="110" stroke="#1f5fa8" stroke-width="2.5" stroke-dasharray="10 6"/>
<rect x="680" y="95" width="50" height="30" fill="#eee" stroke="#000" stroke-width="2"/>
<text x="705" y="115" text-anchor="middle" font-size="14" fill="#000">SA</text>
<circle cx="520" cy="110" r="9" fill="#c0392b" stroke="#000" stroke-width="2"/>
<circle cx="570" cy="110" r="9" fill="#c0392b" stroke="#000" stroke-width="2"/>
<circle cx="620" cy="110" r="9" fill="#c0392b" stroke="#000" stroke-width="2"/>
<circle cx="790" cy="110" r="9" fill="#c0392b" stroke="#000" stroke-width="2"/>
<circle cx="840" cy="110" r="9" fill="#c0392b" stroke="#000" stroke-width="2"/>
<circle cx="890" cy="110" r="9" fill="#c0392b" stroke="#000" stroke-width="2"/>
<line x1="495" y1="170" x2="680" y2="170" stroke="#1f5fa8" stroke-width="2.5"/>
<line x1="730" y1="170" x2="915" y2="170" stroke="#1f5fa8" stroke-width="2.5" stroke-dasharray="10 6"/>
<rect x="680" y="155" width="50" height="30" fill="#eee" stroke="#000" stroke-width="2"/>
<text x="705" y="175" text-anchor="middle" font-size="14" fill="#000">SA</text>
<circle cx="520" cy="170" r="9" fill="#c0392b" stroke="#000" stroke-width="2"/>
<circle cx="570" cy="170" r="9" fill="#c0392b" stroke="#000" stroke-width="2"/>
<circle cx="620" cy="170" r="9" fill="#c0392b" stroke="#000" stroke-width="2"/>
<circle cx="790" cy="170" r="9" fill="#c0392b" stroke="#000" stroke-width="2"/>
<circle cx="840" cy="170" r="9" fill="#c0392b" stroke="#000" stroke-width="2"/>
<circle cx="890" cy="170" r="9" fill="#c0392b" stroke="#000" stroke-width="2"/>
<line x1="495" y1="230" x2="680" y2="230" stroke="#1f5fa8" stroke-width="2.5"/>
<line x1="730" y1="230" x2="915" y2="230" stroke="#1f5fa8" stroke-width="2.5" stroke-dasharray="10 6"/>
<rect x="680" y="215" width="50" height="30" fill="#eee" stroke="#000" stroke-width="2"/>
<text x="705" y="235" text-anchor="middle" font-size="14" fill="#000">SA</text>
<circle cx="520" cy="230" r="9" fill="#c0392b" stroke="#000" stroke-width="2"/>
<circle cx="570" cy="230" r="9" fill="#c0392b" stroke="#000" stroke-width="2"/>
<circle cx="620" cy="230" r="9" fill="#c0392b" stroke="#000" stroke-width="2"/>
<circle cx="790" cy="230" r="9" fill="#c0392b" stroke="#000" stroke-width="2"/>
<circle cx="840" cy="230" r="9" fill="#c0392b" stroke="#000" stroke-width="2"/>
<circle cx="890" cy="230" r="9" fill="#c0392b" stroke="#000" stroke-width="2"/>
<line x1="495" y1="290" x2="680" y2="290" stroke="#1f5fa8" stroke-width="2.5"/>
<line x1="730" y1="290" x2="915" y2="290" stroke="#1f5fa8" stroke-width="2.5" stroke-dasharray="10 6"/>
<rect x="680" y="275" width="50" height="30" fill="#eee" stroke="#000" stroke-width="2"/>
<text x="705" y="295" text-anchor="middle" font-size="14" fill="#000">SA</text>
<circle cx="520" cy="290" r="9" fill="#c0392b" stroke="#000" stroke-width="2"/>
<circle cx="570" cy="290" r="9" fill="#c0392b" stroke="#000" stroke-width="2"/>
<circle cx="620" cy="290" r="9" fill="#c0392b" stroke="#000" stroke-width="2"/>
<circle cx="790" cy="290" r="9" fill="#c0392b" stroke="#000" stroke-width="2"/>
<circle cx="840" cy="290" r="9" fill="#c0392b" stroke="#000" stroke-width="2"/>
<circle cx="890" cy="290" r="9" fill="#c0392b" stroke="#000" stroke-width="2"/>
<text x="570" y="352" text-anchor="middle" font-size="14" fill="#000">左侧阵列</text>
<text x="840" y="352" text-anchor="middle" font-size="14" fill="#000">右侧阵列</text>
<text x="705" y="385" text-anchor="middle" font-size="14" fill="#000">灵敏放大器夹在两块阵列中间；读左侧时，</text>
<text x="705" y="405" text-anchor="middle" font-size="14" fill="#000">右侧那根线没有单元接入，充当参考（虚线）</text>
<text x="705" y="425" text-anchor="middle" font-size="14" fill="#000">每个交叉点都放单元</text>
</svg>