<svg xmlns="http://www.w3.org/2000/svg" viewBox="0 0 960 600" width="960" height="600" font-family="sans-serif" font-size="15">
<rect x="0" y="0" width="960" height="600" fill="#ffffff"/>
<defs><marker id="a" viewBox="0 0 10 10" refX="9" refY="5" markerWidth="7" markerHeight="7" orient="auto-start-reverse"><path d="M0,0 L10,5 L0,10 z" fill="#444"/></marker><marker id="ar" viewBox="0 0 10 10" refX="9" refY="5" markerWidth="7" markerHeight="7" orient="auto-start-reverse"><path d="M0,0 L10,5 L0,10 z" fill="#c0392b"/></marker><marker id="ab" viewBox="0 0 10 10" refX="9" refY="5" markerWidth="7" markerHeight="7" orient="auto-start-reverse"><path d="M0,0 L10,5 L0,10 z" fill="#1f5fa8"/></marker><marker id="ao" viewBox="0 0 10 10" refX="9" refY="5" markerWidth="7" markerHeight="7" orient="auto-start-reverse"><path d="M0,0 L10,5 L0,10 z" fill="#d9822b"/></marker><marker id="ag" viewBox="0 0 10 10" refX="9" refY="5" markerWidth="7" markerHeight="7" orient="auto-start-reverse"><path d="M0,0 L10,5 L0,10 z" fill="#2e7d32"/></marker><pattern id="h" width="8" height="8" patternUnits="userSpaceOnUse" patternTransform="rotate(45)"><rect width="8" height="8" fill="#f4f4f4"/><line x1="0" y1="0" x2="0" y2="8" stroke="#bbb" stroke-width="2"/></pattern></defs>
<text x="20.0" y="32.0" text-anchor="start" fill="#222222" font-size="19" font-weight="bold" >流水线的气泡：GPipe 与 1F1B 空转得一样多，但 1F1B 同时存的激活少一半</text>
<text x="20.0" y="58.0" text-anchor="start" fill="#555" font-size="15" >4 级流水（4 张卡各放 20 层）、一个批切成 8 个微批；前向耗时记 1 格，反向记 2 格；格里的数字是微批编号</text>
<text x="20.0" y="100.0" text-anchor="start" fill="#222222" font-size="16" font-weight="bold" >GPipe：先做完全部 8 个前向，再做全部反向</text>
<text x="60.0" y="137.0" text-anchor="end" fill="#222222" font-size="15" >卡 0</text>
<rect x="70.0" y="114.0" width="726.0" height="34.0" rx="0" fill="url(#h)" stroke="#bbb" stroke-width="1" />
<rect x="70.0" y="114.0" width="22.0" height="34.0" rx="0" fill="#cfe3f7" stroke="#1f5fa8" stroke-width="1.5" />
<text x="81.0" y="137.0" text-anchor="middle" fill="#222222" font-size="15" >0</text>
<rect x="92.0" y="114.0" width="22.0" height="34.0" rx="0" fill="#cfe3f7" stroke="#1f5fa8" stroke-width="1.5" />
<text x="103.0" y="137.0" text-anchor="middle" fill="#222222" font-size="15" >1</text>
<rect x="114.0" y="114.0" width="22.0" height="34.0" rx="0" fill="#cfe3f7" stroke="#1f5fa8" stroke-width="1.5" />
<text x="125.0" y="137.0" text-anchor="middle" fill="#222222" font-size="15" >2</text>
<rect x="136.0" y="114.0" width="22.0" height="34.0" rx="0" fill="#cfe3f7" stroke="#1f5fa8" stroke-width="1.5" />
<text x="147.0" y="137.0" text-anchor="middle" fill="#222222" font-size="15" >3</text>
<rect x="158.0" y="114.0" width="22.0" height="34.0" rx="0" fill="#cfe3f7" stroke="#1f5fa8" stroke-width="1.5" />
<text x="169.0" y="137.0" text-anchor="middle" fill="#222222" font-size="15" >4</text>
<rect x="180.0" y="114.0" width="22.0" height="34.0" rx="0" fill="#cfe3f7" stroke="#1f5fa8" stroke-width="1.5" />
<text x="191.0" y="137.0" text-anchor="middle" fill="#222222" font-size="15" >5</text>
<rect x="202.0" y="114.0" width="22.0" height="34.0" rx="0" fill="#cfe3f7" stroke="#1f5fa8" stroke-width="1.5" />
<text x="213.0" y="137.0" text-anchor="middle" fill="#222222" font-size="15" >6</text>
<rect x="224.0" y="114.0" width="22.0" height="34.0" rx="0" fill="#cfe3f7" stroke="#1f5fa8" stroke-width="1.5" />
<text x="235.0" y="137.0" text-anchor="middle" fill="#222222" font-size="15" >7</text>
<rect x="444.0" y="114.0" width="44.0" height="34.0" rx="0" fill="#fde2c4" stroke="#d9822b" stroke-width="1.5" />
<text x="466.0" y="137.0" text-anchor="middle" fill="#222222" font-size="15" >0</text>
<rect x="488.0" y="114.0" width="44.0" height="34.0" rx="0" fill="#fde2c4" stroke="#d9822b" stroke-width="1.5" />
<text x="510.0" y="137.0" text-anchor="middle" fill="#222222" font-size="15" >1</text>
<rect x="532.0" y="114.0" width="44.0" height="34.0" rx="0" fill="#fde2c4" stroke="#d9822b" stroke-width="1.5" />
<text x="554.0" y="137.0" text-anchor="middle" fill="#222222" font-size="15" >2</text>
<rect x="576.0" y="114.0" width="44.0" height="34.0" rx="0" fill="#fde2c4" stroke="#d9822b" stroke-width="1.5" />
<text x="598.0" y="137.0" text-anchor="middle" fill="#222222" font-size="15" >3</text>
<rect x="620.0" y="114.0" width="44.0" height="34.0" rx="0" fill="#fde2c4" stroke="#d9822b" stroke-width="1.5" />
<text x="642.0" y="137.0" text-anchor="middle" fill="#222222" font-size="15" >4</text>
<rect x="664.0" y="114.0" width="44.0" height="34.0" rx="0" fill="#fde2c4" stroke="#d9822b" stroke-width="1.5" />
<text x="686.0" y="137.0" text-anchor="middle" fill="#222222" font-size="15" >5</text>
<rect x="708.0" y="114.0" width="44.0" height="34.0" rx="0" fill="#fde2c4" stroke="#d9822b" stroke-width="1.5" />
<text x="730.0" y="137.0" text-anchor="middle" fill="#222222" font-size="15" >6</text>
<rect x="752.0" y="114.0" width="44.0" height="34.0" rx="0" fill="#fde2c4" stroke="#d9822b" stroke-width="1.5" />
<text x="774.0" y="137.0" text-anchor="middle" fill="#222222" font-size="15" >7</text>
<text x="808.0" y="137.0" text-anchor="start" fill="#c0392b" font-size="14" >最多存 8 份激活</text>
<text x="60.0" y="177.0" text-anchor="end" fill="#222222" font-size="15" >卡 1</text>
<rect x="70.0" y="154.0" width="726.0" height="34.0" rx="0" fill="url(#h)" stroke="#bbb" stroke-width="1" />
<rect x="92.0" y="154.0" width="22.0" height="34.0" rx="0" fill="#cfe3f7" stroke="#1f5fa8" stroke-width="1.5" />
<text x="103.0" y="177.0" text-anchor="middle" fill="#222222" font-size="15" >0</text>
<rect x="114.0" y="154.0" width="22.0" height="34.0" rx="0" fill="#cfe3f7" stroke="#1f5fa8" stroke-width="1.5" />
<text x="125.0" y="177.0" text-anchor="middle" fill="#222222" font-size="15" >1</text>
<rect x="136.0" y="154.0" width="22.0" height="34.0" rx="0" fill="#cfe3f7" stroke="#1f5fa8" stroke-width="1.5" />
<text x="147.0" y="177.0" text-anchor="middle" fill="#222222" font-size="15" >2</text>
<rect x="158.0" y="154.0" width="22.0" height="34.0" rx="0" fill="#cfe3f7" stroke="#1f5fa8" stroke-width="1.5" />
<text x="169.0" y="177.0" text-anchor="middle" fill="#222222" font-size="15" >3</text>
<rect x="180.0" y="154.0" width="22.0" height="34.0" rx="0" fill="#cfe3f7" stroke="#1f5fa8" stroke-width="1.5" />
<text x="191.0" y="177.0" text-anchor="middle" fill="#222222" font-size="15" >4</text>
<rect x="202.0" y="154.0" width="22.0" height="34.0" rx="0" fill="#cfe3f7" stroke="#1f5fa8" stroke-width="1.5" />
<text x="213.0" y="177.0" text-anchor="middle" fill="#222222" font-size="15" >5</text>
<rect x="224.0" y="154.0" width="22.0" height="34.0" rx="0" fill="#cfe3f7" stroke="#1f5fa8" stroke-width="1.5" />
<text x="235.0" y="177.0" text-anchor="middle" fill="#222222" font-size="15" >6</text>
<rect x="246.0" y="154.0" width="22.0" height="34.0" rx="0" fill="#cfe3f7" stroke="#1f5fa8" stroke-width="1.5" />
<text x="257.0" y="177.0" text-anchor="middle" fill="#222222" font-size="15" >7</text>
<rect x="400.0" y="154.0" width="44.0" height="34.0" rx="0" fill="#fde2c4" stroke="#d9822b" stroke-width="1.5" />
<text x="422.0" y="177.0" text-anchor="middle" fill="#222222" font-size="15" >0</text>
<rect x="444.0" y="154.0" width="44.0" height="34.0" rx="0" fill="#fde2c4" stroke="#d9822b" stroke-width="1.5" />
<text x="466.0" y="177.0" text-anchor="middle" fill="#222222" font-size="15" >1</text>
<rect x="488.0" y="154.0" width="44.0" height="34.0" rx="0" fill="#fde2c4" stroke="#d9822b" stroke-width="1.5" />
<text x="510.0" y="177.0" text-anchor="middle" fill="#222222" font-size="15" >2</text>
<rect x="532.0" y="154.0" width="44.0" height="34.0" rx="0" fill="#fde2c4" stroke="#d9822b" stroke-width="1.5" />
<text x="554.0" y="177.0" text-anchor="middle" fill="#222222" font-size="15" >3</text>
<rect x="576.0" y="154.0" width="44.0" height="34.0" rx="0" fill="#fde2c4" stroke="#d9822b" stroke-width="1.5" />
<text x="598.0" y="177.0" text-anchor="middle" fill="#222222" font-size="15" >4</text>
<rect x="620.0" y="154.0" width="44.0" height="34.0" rx="0" fill="#fde2c4" stroke="#d9822b" stroke-width="1.5" />
<text x="642.0" y="177.0" text-anchor="middle" fill="#222222" font-size="15" >5</text>
<rect x="664.0" y="154.0" width="44.0" height="34.0" rx="0" fill="#fde2c4" stroke="#d9822b" stroke-width="1.5" />
<text x="686.0" y="177.0" text-anchor="middle" fill="#222222" font-size="15" >6</text>
<rect x="708.0" y="154.0" width="44.0" height="34.0" rx="0" fill="#fde2c4" stroke="#d9822b" stroke-width="1.5" />
<text x="730.0" y="177.0" text-anchor="middle" fill="#222222" font-size="15" >7</text>
<text x="808.0" y="177.0" text-anchor="start" fill="#444" font-size="14" >最多存 8 份激活</text>
<text x="60.0" y="217.0" text-anchor="end" fill="#222222" font-size="15" >卡 2</text>
<rect x="70.0" y="194.0" width="726.0" height="34.0" rx="0" fill="url(#h)" stroke="#bbb" stroke-width="1" />
<rect x="114.0" y="194.0" width="22.0" height="34.0" rx="0" fill="#cfe3f7" stroke="#1f5fa8" stroke-width="1.5" />
<text x="125.0" y="217.0" text-anchor="middle" fill="#222222" font-size="15" >0</text>
<rect x="136.0" y="194.0" width="22.0" height="34.0" rx="0" fill="#cfe3f7" stroke="#1f5fa8" stroke-width="1.5" />
<text x="147.0" y="217.0" text-anchor="middle" fill="#222222" font-size="15" >1</text>
<rect x="158.0" y="194.0" width="22.0" height="34.0" rx="0" fill="#cfe3f7" stroke="#1f5fa8" stroke-width="1.5" />
<text x="169.0" y="217.0" text-anchor="middle" fill="#222222" font-size="15" >2</text>
<rect x="180.0" y="194.0" width="22.0" height="34.0" rx="0" fill="#cfe3f7" stroke="#1f5fa8" stroke-width="1.5" />
<text x="191.0" y="217.0" text-anchor="middle" fill="#222222" font-size="15" >3</text>
<rect x="202.0" y="194.0" width="22.0" height="34.0" rx="0" fill="#cfe3f7" stroke="#1f5fa8" stroke-width="1.5" />
<text x="213.0" y="217.0" text-anchor="middle" fill="#222222" font-size="15" >4</text>
<rect x="224.0" y="194.0" width="22.0" height="34.0" rx="0" fill="#cfe3f7" stroke="#1f5fa8" stroke-width="1.5" />
<text x="235.0" y="217.0" text-anchor="middle" fill="#222222" font-size="15" >5</text>
<rect x="246.0" y="194.0" width="22.0" height="34.0" rx="0" fill="#cfe3f7" stroke="#1f5fa8" stroke-width="1.5" />
<text x="257.0" y="217.0" text-anchor="middle" fill="#222222" font-size="15" >6</text>
<rect x="268.0" y="194.0" width="22.0" height="34.0" rx="0" fill="#cfe3f7" stroke="#1f5fa8" stroke-width="1.5" />
<text x="279.0" y="217.0" text-anchor="middle" fill="#222222" font-size="15" >7</text>
<rect x="356.0" y="194.0" width="44.0" height="34.0" rx="0" fill="#fde2c4" stroke="#d9822b" stroke-width="1.5" />
<text x="378.0" y="217.0" text-anchor="middle" fill="#222222" font-size="15" >0</text>
<rect x="400.0" y="194.0" width="44.0" height="34.0" rx="0" fill="#fde2c4" stroke="#d9822b" stroke-width="1.5" />
<text x="422.0" y="217.0" text-anchor="middle" fill="#222222" font-size="15" >1</text>
<rect x="444.0" y="194.0" width="44.0" height="34.0" rx="0" fill="#fde2c4" stroke="#d9822b" stroke-width="1.5" />
<text x="466.0" y="217.0" text-anchor="middle" fill="#222222" font-size="15" >2</text>
<rect x="488.0" y="194.0" width="44.0" height="34.0" rx="0" fill="#fde2c4" stroke="#d9822b" stroke-width="1.5" />
<text x="510.0" y="217.0" text-anchor="middle" fill="#222222" font-size="15" >3</text>
<rect x="532.0" y="194.0" width="44.0" height="34.0" rx="0" fill="#fde2c4" stroke="#d9822b" stroke-width="1.5" />
<text x="554.0" y="217.0" text-anchor="middle" fill="#222222" font-size="15" >4</text>
<rect x="576.0" y="194.0" width="44.0" height="34.0" rx="0" fill="#fde2c4" stroke="#d9822b" stroke-width="1.5" />
<text x="598.0" y="217.0" text-anchor="middle" fill="#222222" font-size="15" >5</text>
<rect x="620.0" y="194.0" width="44.0" height="34.0" rx="0" fill="#fde2c4" stroke="#d9822b" stroke-width="1.5" />
<text x="642.0" y="217.0" text-anchor="middle" fill="#222222" font-size="15" >6</text>
<rect x="664.0" y="194.0" width="44.0" height="34.0" rx="0" fill="#fde2c4" stroke="#d9822b" stroke-width="1.5" />
<text x="686.0" y="217.0" text-anchor="middle" fill="#222222" font-size="15" >7</text>
<text x="808.0" y="217.0" text-anchor="start" fill="#444" font-size="14" >最多存 8 份激活</text>
<text x="60.0" y="257.0" text-anchor="end" fill="#222222" font-size="15" >卡 3</text>
<rect x="70.0" y="234.0" width="726.0" height="34.0" rx="0" fill="url(#h)" stroke="#bbb" stroke-width="1" />
<rect x="136.0" y="234.0" width="22.0" height="34.0" rx="0" fill="#cfe3f7" stroke="#1f5fa8" stroke-width="1.5" />
<text x="147.0" y="257.0" text-anchor="middle" fill="#222222" font-size="15" >0</text>
<rect x="158.0" y="234.0" width="22.0" height="34.0" rx="0" fill="#cfe3f7" stroke="#1f5fa8" stroke-width="1.5" />
<text x="169.0" y="257.0" text-anchor="middle" fill="#222222" font-size="15" >1</text>
<rect x="180.0" y="234.0" width="22.0" height="34.0" rx="0" fill="#cfe3f7" stroke="#1f5fa8" stroke-width="1.5" />
<text x="191.0" y="257.0" text-anchor="middle" fill="#222222" font-size="15" >2</text>
<rect x="202.0" y="234.0" width="22.0" height="34.0" rx="0" fill="#cfe3f7" stroke="#1f5fa8" stroke-width="1.5" />
<text x="213.0" y="257.0" text-anchor="middle" fill="#222222" font-size="15" >3</text>
<rect x="224.0" y="234.0" width="22.0" height="34.0" rx="0" fill="#cfe3f7" stroke="#1f5fa8" stroke-width="1.5" />
<text x="235.0" y="257.0" text-anchor="middle" fill="#222222" font-size="15" >4</text>
<rect x="246.0" y="234.0" width="22.0" height="34.0" rx="0" fill="#cfe3f7" stroke="#1f5fa8" stroke-width="1.5" />
<text x="257.0" y="257.0" text-anchor="middle" fill="#222222" font-size="15" >5</text>
<rect x="268.0" y="234.0" width="22.0" height="34.0" rx="0" fill="#cfe3f7" stroke="#1f5fa8" stroke-width="1.5" />
<text x="279.0" y="257.0" text-anchor="middle" fill="#222222" font-size="15" >6</text>
<rect x="290.0" y="234.0" width="22.0" height="34.0" rx="0" fill="#cfe3f7" stroke="#1f5fa8" stroke-width="1.5" />
<text x="301.0" y="257.0" text-anchor="middle" fill="#222222" font-size="15" >7</text>
<rect x="312.0" y="234.0" width="44.0" height="34.0" rx="0" fill="#fde2c4" stroke="#d9822b" stroke-width="1.5" />
<text x="334.0" y="257.0" text-anchor="middle" fill="#222222" font-size="15" >0</text>
<rect x="356.0" y="234.0" width="44.0" height="34.0" rx="0" fill="#fde2c4" stroke="#d9822b" stroke-width="1.5" />
<text x="378.0" y="257.0" text-anchor="middle" fill="#222222" font-size="15" >1</text>
<rect x="400.0" y="234.0" width="44.0" height="34.0" rx="0" fill="#fde2c4" stroke="#d9822b" stroke-width="1.5" />
<text x="422.0" y="257.0" text-anchor="middle" fill="#222222" font-size="15" >2</text>
<rect x="444.0" y="234.0" width="44.0" height="34.0" rx="0" fill="#fde2c4" stroke="#d9822b" stroke-width="1.5" />
<text x="466.0" y="257.0" text-anchor="middle" fill="#222222" font-size="15" >3</text>
<rect x="488.0" y="234.0" width="44.0" height="34.0" rx="0" fill="#fde2c4" stroke="#d9822b" stroke-width="1.5" />
<text x="510.0" y="257.0" text-anchor="middle" fill="#222222" font-size="15" >4</text>
<rect x="532.0" y="234.0" width="44.0" height="34.0" rx="0" fill="#fde2c4" stroke="#d9822b" stroke-width="1.5" />
<text x="554.0" y="257.0" text-anchor="middle" fill="#222222" font-size="15" >5</text>
<rect x="576.0" y="234.0" width="44.0" height="34.0" rx="0" fill="#fde2c4" stroke="#d9822b" stroke-width="1.5" />
<text x="598.0" y="257.0" text-anchor="middle" fill="#222222" font-size="15" >6</text>
<rect x="620.0" y="234.0" width="44.0" height="34.0" rx="0" fill="#fde2c4" stroke="#d9822b" stroke-width="1.5" />
<text x="642.0" y="257.0" text-anchor="middle" fill="#222222" font-size="15" >7</text>
<text x="808.0" y="257.0" text-anchor="start" fill="#444" font-size="14" >最多存 8 份激活</text>
<text x="20.0" y="314.0" text-anchor="start" fill="#222222" font-size="16" font-weight="bold" >1F1B：做完一个前向，只要反向能做就先做反向，随即释放这个微批的激活</text>
<text x="60.0" y="351.0" text-anchor="end" fill="#222222" font-size="15" >卡 0</text>
<rect x="70.0" y="328.0" width="726.0" height="34.0" rx="0" fill="url(#h)" stroke="#bbb" stroke-width="1" />
<rect x="70.0" y="328.0" width="22.0" height="34.0" rx="0" fill="#cfe3f7" stroke="#1f5fa8" stroke-width="1.5" />
<text x="81.0" y="351.0" text-anchor="middle" fill="#222222" font-size="15" >0</text>
<rect x="92.0" y="328.0" width="22.0" height="34.0" rx="0" fill="#cfe3f7" stroke="#1f5fa8" stroke-width="1.5" />
<text x="103.0" y="351.0" text-anchor="middle" fill="#222222" font-size="15" >1</text>
<rect x="114.0" y="328.0" width="22.0" height="34.0" rx="0" fill="#cfe3f7" stroke="#1f5fa8" stroke-width="1.5" />
<text x="125.0" y="351.0" text-anchor="middle" fill="#222222" font-size="15" >2</text>
<rect x="136.0" y="328.0" width="22.0" height="34.0" rx="0" fill="#cfe3f7" stroke="#1f5fa8" stroke-width="1.5" />
<text x="147.0" y="351.0" text-anchor="middle" fill="#222222" font-size="15" >3</text>
<rect x="290.0" y="328.0" width="44.0" height="34.0" rx="0" fill="#fde2c4" stroke="#d9822b" stroke-width="1.5" />
<text x="312.0" y="351.0" text-anchor="middle" fill="#222222" font-size="15" >0</text>
<rect x="334.0" y="328.0" width="22.0" height="34.0" rx="0" fill="#cfe3f7" stroke="#1f5fa8" stroke-width="1.5" />
<text x="345.0" y="351.0" text-anchor="middle" fill="#222222" font-size="15" >4</text>
<rect x="356.0" y="328.0" width="44.0" height="34.0" rx="0" fill="#fde2c4" stroke="#d9822b" stroke-width="1.5" />
<text x="378.0" y="351.0" text-anchor="middle" fill="#222222" font-size="15" >1</text>
<rect x="400.0" y="328.0" width="22.0" height="34.0" rx="0" fill="#cfe3f7" stroke="#1f5fa8" stroke-width="1.5" />
<text x="411.0" y="351.0" text-anchor="middle" fill="#222222" font-size="15" >5</text>
<rect x="422.0" y="328.0" width="44.0" height="34.0" rx="0" fill="#fde2c4" stroke="#d9822b" stroke-width="1.5" />
<text x="444.0" y="351.0" text-anchor="middle" fill="#222222" font-size="15" >2</text>
<rect x="466.0" y="328.0" width="22.0" height="34.0" rx="0" fill="#cfe3f7" stroke="#1f5fa8" stroke-width="1.5" />
<text x="477.0" y="351.0" text-anchor="middle" fill="#222222" font-size="15" >6</text>
<rect x="488.0" y="328.0" width="44.0" height="34.0" rx="0" fill="#fde2c4" stroke="#d9822b" stroke-width="1.5" />
<text x="510.0" y="351.0" text-anchor="middle" fill="#222222" font-size="15" >3</text>
<rect x="532.0" y="328.0" width="22.0" height="34.0" rx="0" fill="#cfe3f7" stroke="#1f5fa8" stroke-width="1.5" />
<text x="543.0" y="351.0" text-anchor="middle" fill="#222222" font-size="15" >7</text>
<rect x="554.0" y="328.0" width="44.0" height="34.0" rx="0" fill="#fde2c4" stroke="#d9822b" stroke-width="1.5" />
<text x="576.0" y="351.0" text-anchor="middle" fill="#222222" font-size="15" >4</text>
<rect x="620.0" y="328.0" width="44.0" height="34.0" rx="0" fill="#fde2c4" stroke="#d9822b" stroke-width="1.5" />
<text x="642.0" y="351.0" text-anchor="middle" fill="#222222" font-size="15" >5</text>
<rect x="686.0" y="328.0" width="44.0" height="34.0" rx="0" fill="#fde2c4" stroke="#d9822b" stroke-width="1.5" />
<text x="708.0" y="351.0" text-anchor="middle" fill="#222222" font-size="15" >6</text>
<rect x="752.0" y="328.0" width="44.0" height="34.0" rx="0" fill="#fde2c4" stroke="#d9822b" stroke-width="1.5" />
<text x="774.0" y="351.0" text-anchor="middle" fill="#222222" font-size="15" >7</text>
<text x="808.0" y="351.0" text-anchor="start" fill="#c0392b" font-size="14" >最多存 4 份激活</text>
<text x="60.0" y="391.0" text-anchor="end" fill="#222222" font-size="15" >卡 1</text>
<rect x="70.0" y="368.0" width="726.0" height="34.0" rx="0" fill="url(#h)" stroke="#bbb" stroke-width="1" />
<rect x="92.0" y="368.0" width="22.0" height="34.0" rx="0" fill="#cfe3f7" stroke="#1f5fa8" stroke-width="1.5" />
<text x="103.0" y="391.0" text-anchor="middle" fill="#222222" font-size="15" >0</text>
<rect x="114.0" y="368.0" width="22.0" height="34.0" rx="0" fill="#cfe3f7" stroke="#1f5fa8" stroke-width="1.5" />
<text x="125.0" y="391.0" text-anchor="middle" fill="#222222" font-size="15" >1</text>
<rect x="136.0" y="368.0" width="22.0" height="34.0" rx="0" fill="#cfe3f7" stroke="#1f5fa8" stroke-width="1.5" />
<text x="147.0" y="391.0" text-anchor="middle" fill="#222222" font-size="15" >2</text>
<rect x="246.0" y="368.0" width="44.0" height="34.0" rx="0" fill="#fde2c4" stroke="#d9822b" stroke-width="1.5" />
<text x="268.0" y="391.0" text-anchor="middle" fill="#222222" font-size="15" >0</text>
<rect x="290.0" y="368.0" width="22.0" height="34.0" rx="0" fill="#cfe3f7" stroke="#1f5fa8" stroke-width="1.5" />
<text x="301.0" y="391.0" text-anchor="middle" fill="#222222" font-size="15" >3</text>
<rect x="312.0" y="368.0" width="44.0" height="34.0" rx="0" fill="#fde2c4" stroke="#d9822b" stroke-width="1.5" />
<text x="334.0" y="391.0" text-anchor="middle" fill="#222222" font-size="15" >1</text>
<rect x="356.0" y="368.0" width="22.0" height="34.0" rx="0" fill="#cfe3f7" stroke="#1f5fa8" stroke-width="1.5" />
<text x="367.0" y="391.0" text-anchor="middle" fill="#222222" font-size="15" >4</text>
<rect x="378.0" y="368.0" width="44.0" height="34.0" rx="0" fill="#fde2c4" stroke="#d9822b" stroke-width="1.5" />
<text x="400.0" y="391.0" text-anchor="middle" fill="#222222" font-size="15" >2</text>
<rect x="422.0" y="368.0" width="22.0" height="34.0" rx="0" fill="#cfe3f7" stroke="#1f5fa8" stroke-width="1.5" />
<text x="433.0" y="391.0" text-anchor="middle" fill="#222222" font-size="15" >5</text>
<rect x="444.0" y="368.0" width="44.0" height="34.0" rx="0" fill="#fde2c4" stroke="#d9822b" stroke-width="1.5" />
<text x="466.0" y="391.0" text-anchor="middle" fill="#222222" font-size="15" >3</text>
<rect x="488.0" y="368.0" width="22.0" height="34.0" rx="0" fill="#cfe3f7" stroke="#1f5fa8" stroke-width="1.5" />
<text x="499.0" y="391.0" text-anchor="middle" fill="#222222" font-size="15" >6</text>
<rect x="510.0" y="368.0" width="44.0" height="34.0" rx="0" fill="#fde2c4" stroke="#d9822b" stroke-width="1.5" />
<text x="532.0" y="391.0" text-anchor="middle" fill="#222222" font-size="15" >4</text>
<rect x="554.0" y="368.0" width="22.0" height="34.0" rx="0" fill="#cfe3f7" stroke="#1f5fa8" stroke-width="1.5" />
<text x="565.0" y="391.0" text-anchor="middle" fill="#222222" font-size="15" >7</text>
<rect x="576.0" y="368.0" width="44.0" height="34.0" rx="0" fill="#fde2c4" stroke="#d9822b" stroke-width="1.5" />
<text x="598.0" y="391.0" text-anchor="middle" fill="#222222" font-size="15" >5</text>
<rect x="642.0" y="368.0" width="44.0" height="34.0" rx="0" fill="#fde2c4" stroke="#d9822b" stroke-width="1.5" />
<text x="664.0" y="391.0" text-anchor="middle" fill="#222222" font-size="15" >6</text>
<rect x="708.0" y="368.0" width="44.0" height="34.0" rx="0" fill="#fde2c4" stroke="#d9822b" stroke-width="1.5" />
<text x="730.0" y="391.0" text-anchor="middle" fill="#222222" font-size="15" >7</text>
<text x="808.0" y="391.0" text-anchor="start" fill="#444" font-size="14" >最多存 3 份激活</text>
<text x="60.0" y="431.0" text-anchor="end" fill="#222222" font-size="15" >卡 2</text>
<rect x="70.0" y="408.0" width="726.0" height="34.0" rx="0" fill="url(#h)" stroke="#bbb" stroke-width="1" />
<rect x="114.0" y="408.0" width="22.0" height="34.0" rx="0" fill="#cfe3f7" stroke="#1f5fa8" stroke-width="1.5" />
<text x="125.0" y="431.0" text-anchor="middle" fill="#222222" font-size="15" >0</text>
<rect x="136.0" y="408.0" width="22.0" height="34.0" rx="0" fill="#cfe3f7" stroke="#1f5fa8" stroke-width="1.5" />
<text x="147.0" y="431.0" text-anchor="middle" fill="#222222" font-size="15" >1</text>
<rect x="202.0" y="408.0" width="44.0" height="34.0" rx="0" fill="#fde2c4" stroke="#d9822b" stroke-width="1.5" />
<text x="224.0" y="431.0" text-anchor="middle" fill="#222222" font-size="15" >0</text>
<rect x="246.0" y="408.0" width="22.0" height="34.0" rx="0" fill="#cfe3f7" stroke="#1f5fa8" stroke-width="1.5" />
<text x="257.0" y="431.0" text-anchor="middle" fill="#222222" font-size="15" >2</text>
<rect x="268.0" y="408.0" width="44.0" height="34.0" rx="0" fill="#fde2c4" stroke="#d9822b" stroke-width="1.5" />
<text x="290.0" y="431.0" text-anchor="middle" fill="#222222" font-size="15" >1</text>
<rect x="312.0" y="408.0" width="22.0" height="34.0" rx="0" fill="#cfe3f7" stroke="#1f5fa8" stroke-width="1.5" />
<text x="323.0" y="431.0" text-anchor="middle" fill="#222222" font-size="15" >3</text>
<rect x="334.0" y="408.0" width="44.0" height="34.0" rx="0" fill="#fde2c4" stroke="#d9822b" stroke-width="1.5" />
<text x="356.0" y="431.0" text-anchor="middle" fill="#222222" font-size="15" >2</text>
<rect x="378.0" y="408.0" width="22.0" height="34.0" rx="0" fill="#cfe3f7" stroke="#1f5fa8" stroke-width="1.5" />
<text x="389.0" y="431.0" text-anchor="middle" fill="#222222" font-size="15" >4</text>
<rect x="400.0" y="408.0" width="44.0" height="34.0" rx="0" fill="#fde2c4" stroke="#d9822b" stroke-width="1.5" />
<text x="422.0" y="431.0" text-anchor="middle" fill="#222222" font-size="15" >3</text>
<rect x="444.0" y="408.0" width="22.0" height="34.0" rx="0" fill="#cfe3f7" stroke="#1f5fa8" stroke-width="1.5" />
<text x="455.0" y="431.0" text-anchor="middle" fill="#222222" font-size="15" >5</text>
<rect x="466.0" y="408.0" width="44.0" height="34.0" rx="0" fill="#fde2c4" stroke="#d9822b" stroke-width="1.5" />
<text x="488.0" y="431.0" text-anchor="middle" fill="#222222" font-size="15" >4</text>
<rect x="510.0" y="408.0" width="22.0" height="34.0" rx="0" fill="#cfe3f7" stroke="#1f5fa8" stroke-width="1.5" />
<text x="521.0" y="431.0" text-anchor="middle" fill="#222222" font-size="15" >6</text>
<rect x="532.0" y="408.0" width="44.0" height="34.0" rx="0" fill="#fde2c4" stroke="#d9822b" stroke-width="1.5" />
<text x="554.0" y="431.0" text-anchor="middle" fill="#222222" font-size="15" >5</text>
<rect x="576.0" y="408.0" width="22.0" height="34.0" rx="0" fill="#cfe3f7" stroke="#1f5fa8" stroke-width="1.5" />
<text x="587.0" y="431.0" text-anchor="middle" fill="#222222" font-size="15" >7</text>
<rect x="598.0" y="408.0" width="44.0" height="34.0" rx="0" fill="#fde2c4" stroke="#d9822b" stroke-width="1.5" />
<text x="620.0" y="431.0" text-anchor="middle" fill="#222222" font-size="15" >6</text>
<rect x="664.0" y="408.0" width="44.0" height="34.0" rx="0" fill="#fde2c4" stroke="#d9822b" stroke-width="1.5" />
<text x="686.0" y="431.0" text-anchor="middle" fill="#222222" font-size="15" >7</text>
<text x="808.0" y="431.0" text-anchor="start" fill="#444" font-size="14" >最多存 2 份激活</text>
<text x="60.0" y="471.0" text-anchor="end" fill="#222222" font-size="15" >卡 3</text>
<rect x="70.0" y="448.0" width="726.0" height="34.0" rx="0" fill="url(#h)" stroke="#bbb" stroke-width="1" />
<rect x="136.0" y="448.0" width="22.0" height="34.0" rx="0" fill="#cfe3f7" stroke="#1f5fa8" stroke-width="1.5" />
<text x="147.0" y="471.0" text-anchor="middle" fill="#222222" font-size="15" >0</text>
<rect x="158.0" y="448.0" width="44.0" height="34.0" rx="0" fill="#fde2c4" stroke="#d9822b" stroke-width="1.5" />
<text x="180.0" y="471.0" text-anchor="middle" fill="#222222" font-size="15" >0</text>
<rect x="202.0" y="448.0" width="22.0" height="34.0" rx="0" fill="#cfe3f7" stroke="#1f5fa8" stroke-width="1.5" />
<text x="213.0" y="471.0" text-anchor="middle" fill="#222222" font-size="15" >1</text>
<rect x="224.0" y="448.0" width="44.0" height="34.0" rx="0" fill="#fde2c4" stroke="#d9822b" stroke-width="1.5" />
<text x="246.0" y="471.0" text-anchor="middle" fill="#222222" font-size="15" >1</text>
<rect x="268.0" y="448.0" width="22.0" height="34.0" rx="0" fill="#cfe3f7" stroke="#1f5fa8" stroke-width="1.5" />
<text x="279.0" y="471.0" text-anchor="middle" fill="#222222" font-size="15" >2</text>
<rect x="290.0" y="448.0" width="44.0" height="34.0" rx="0" fill="#fde2c4" stroke="#d9822b" stroke-width="1.5" />
<text x="312.0" y="471.0" text-anchor="middle" fill="#222222" font-size="15" >2</text>
<rect x="334.0" y="448.0" width="22.0" height="34.0" rx="0" fill="#cfe3f7" stroke="#1f5fa8" stroke-width="1.5" />
<text x="345.0" y="471.0" text-anchor="middle" fill="#222222" font-size="15" >3</text>
<rect x="356.0" y="448.0" width="44.0" height="34.0" rx="0" fill="#fde2c4" stroke="#d9822b" stroke-width="1.5" />
<text x="378.0" y="471.0" text-anchor="middle" fill="#222222" font-size="15" >3</text>
<rect x="400.0" y="448.0" width="22.0" height="34.0" rx="0" fill="#cfe3f7" stroke="#1f5fa8" stroke-width="1.5" />
<text x="411.0" y="471.0" text-anchor="middle" fill="#222222" font-size="15" >4</text>
<rect x="422.0" y="448.0" width="44.0" height="34.0" rx="0" fill="#fde2c4" stroke="#d9822b" stroke-width="1.5" />
<text x="444.0" y="471.0" text-anchor="middle" fill="#222222" font-size="15" >4</text>
<rect x="466.0" y="448.0" width="22.0" height="34.0" rx="0" fill="#cfe3f7" stroke="#1f5fa8" stroke-width="1.5" />
<text x="477.0" y="471.0" text-anchor="middle" fill="#222222" font-size="15" >5</text>
<rect x="488.0" y="448.0" width="44.0" height="34.0" rx="0" fill="#fde2c4" stroke="#d9822b" stroke-width="1.5" />
<text x="510.0" y="471.0" text-anchor="middle" fill="#222222" font-size="15" >5</text>
<rect x="532.0" y="448.0" width="22.0" height="34.0" rx="0" fill="#cfe3f7" stroke="#1f5fa8" stroke-width="1.5" />
<text x="543.0" y="471.0" text-anchor="middle" fill="#222222" font-size="15" >6</text>
<rect x="554.0" y="448.0" width="44.0" height="34.0" rx="0" fill="#fde2c4" stroke="#d9822b" stroke-width="1.5" />
<text x="576.0" y="471.0" text-anchor="middle" fill="#222222" font-size="15" >6</text>
<rect x="598.0" y="448.0" width="22.0" height="34.0" rx="0" fill="#cfe3f7" stroke="#1f5fa8" stroke-width="1.5" />
<text x="609.0" y="471.0" text-anchor="middle" fill="#222222" font-size="15" >7</text>
<rect x="620.0" y="448.0" width="44.0" height="34.0" rx="0" fill="#fde2c4" stroke="#d9822b" stroke-width="1.5" />
<text x="642.0" y="471.0" text-anchor="middle" fill="#222222" font-size="15" >7</text>
<text x="808.0" y="471.0" text-anchor="start" fill="#444" font-size="14" >最多存 1 份激活</text>
<line x1="70.0" y1="496.0" x2="796.0" y2="496.0" stroke="#444" stroke-width="1.5" marker-end="url(#a)"/>
<line x1="70.0" y1="492.0" x2="70.0" y2="500.0" stroke="#444" stroke-width="1.5"/>
<text x="70.0" y="518.0" text-anchor="middle" fill="#222222" font-size="14" >0</text>
<line x1="136.0" y1="492.0" x2="136.0" y2="500.0" stroke="#444" stroke-width="1.5"/>
<text x="136.0" y="518.0" text-anchor="middle" fill="#222222" font-size="14" >3</text>
<line x1="202.0" y1="492.0" x2="202.0" y2="500.0" stroke="#444" stroke-width="1.5"/>
<text x="202.0" y="518.0" text-anchor="middle" fill="#222222" font-size="14" >6</text>
<line x1="268.0" y1="492.0" x2="268.0" y2="500.0" stroke="#444" stroke-width="1.5"/>
<text x="268.0" y="518.0" text-anchor="middle" fill="#222222" font-size="14" >9</text>
<line x1="334.0" y1="492.0" x2="334.0" y2="500.0" stroke="#444" stroke-width="1.5"/>
<text x="334.0" y="518.0" text-anchor="middle" fill="#222222" font-size="14" >12</text>
<line x1="400.0" y1="492.0" x2="400.0" y2="500.0" stroke="#444" stroke-width="1.5"/>
<text x="400.0" y="518.0" text-anchor="middle" fill="#222222" font-size="14" >15</text>
<line x1="466.0" y1="492.0" x2="466.0" y2="500.0" stroke="#444" stroke-width="1.5"/>
<text x="466.0" y="518.0" text-anchor="middle" fill="#222222" font-size="14" >18</text>
<line x1="532.0" y1="492.0" x2="532.0" y2="500.0" stroke="#444" stroke-width="1.5"/>
<text x="532.0" y="518.0" text-anchor="middle" fill="#222222" font-size="14" >21</text>
<line x1="598.0" y1="492.0" x2="598.0" y2="500.0" stroke="#444" stroke-width="1.5"/>
<text x="598.0" y="518.0" text-anchor="middle" fill="#222222" font-size="14" >24</text>
<line x1="664.0" y1="492.0" x2="664.0" y2="500.0" stroke="#444" stroke-width="1.5"/>
<text x="664.0" y="518.0" text-anchor="middle" fill="#222222" font-size="14" >27</text>
<line x1="730.0" y1="492.0" x2="730.0" y2="500.0" stroke="#444" stroke-width="1.5"/>
<text x="730.0" y="518.0" text-anchor="middle" fill="#222222" font-size="14" >30</text>
<line x1="796.0" y1="492.0" x2="796.0" y2="500.0" stroke="#444" stroke-width="1.5"/>
<text x="796.0" y="518.0" text-anchor="middle" fill="#222222" font-size="14" >33</text>
<text x="806.0" y="501.0" text-anchor="start" fill="#222222" font-size="14" >时间（格）</text>
<rect x="70.0" y="544.0" width="24.0" height="18.0" rx="0" fill="#cfe3f7" stroke="#1f5fa8" stroke-width="1.5" />
<text x="102.0" y="559.0" text-anchor="start" fill="#222222" font-size="14" >前向</text>
<rect x="160.0" y="544.0" width="48.0" height="18.0" rx="0" fill="#fde2c4" stroke="#d9822b" stroke-width="1.5" />
<text x="216.0" y="559.0" text-anchor="start" fill="#222222" font-size="14" >反向</text>
<rect x="270.0" y="544.0" width="24.0" height="18.0" rx="0" fill="url(#h)" stroke="#bbb" stroke-width="1" />
<text x="302.0" y="559.0" text-anchor="start" fill="#222222" font-size="14" >空转（气泡）</text>
<text x="430.0" y="559.0" text-anchor="start" fill="#c0392b" font-size="14" >每张卡一步共 33 格，干活 8×3 = 24 格，空转 9 格：9/33 = 3/11 ≈ 27%</text>
</svg>
